# xmcd CD database file
#
# Track frame offsets:
#	150
#	993
#	27374
#	51063
#	72795
#	102470
#	121263
#	157511
#	181803
#	197788
#	211131
#	233326
#	244572
#	271407
#	288779
#	305888
#
# Disc length: 4428 seconds
#
# Revision: 0
# Processed by: cddbd v1.5.2PL0 Copyright (c) Steve Scherf et al.
# Submitted via: CDex 1.70beta2
#
DISCID=c6114a10
DTITLE=Steve Berry - The Paris Vendetta Disc 1
DYEAR=2009
DGENRE=Audio Book
TTITLE0=The Paris Vendetta Disc 1-01
TTITLE1=The Paris Vendetta Disc 1-02
TTITLE2=The Paris Vendetta Disc 1-03
TTITLE3=The Paris Vendetta Disc 1-04
TTITLE4=The Paris Vendetta Disc 1-05
TTITLE5=The Paris Vendetta Disc 1-06
TTITLE6=The Paris Vendetta Disc 1-07
TTITLE7=The Paris Vendetta Disc 1-08
TTITLE8=The Paris Vendetta Disc 1-09
TTITLE9=The Paris Vendetta Disc 1-10
TTITLE10=The Paris Vendetta Disc 1-11
TTITLE11=The Paris Vendetta Disc 1-12
TTITLE12=The Paris Vendetta Disc 1-13
TTITLE13=The Paris Vendetta Disc 1-14
TTITLE14=The Paris Vendetta Disc 1-15
TTITLE15=The Paris Vendetta Disc 1-16
EXTD=YEAR: 2009
EXTT0=
EXTT1=
EXTT2=
EXTT3=
EXTT4=
EXTT5=
EXTT6=
EXTT7=
EXTT8=
EXTT9=
EXTT10=
EXTT11=
EXTT12=
EXTT13=
EXTT14=
EXTT15=
PLAYORDER=
